<?xml version="1.0" encoding="UTF-8"?>
<svg width="512px" height="512px" viewBox="0 0 512 512" version="1.1" xmlns="http://www.w3.org/2000/svg" xmlns:xlink="http://www.w3.org/1999/xlink">
    <!-- Generator: Sketch 52.2 (67145) - http://www.bohemiancoding.com/sketch -->
    <title>BorderedClose</title>
    <desc>Created with Sketch.</desc>
    <g id="Page-1" stroke="none" stroke-width="1" fill="none" fill-rule="evenodd">
        <g id="Icons" transform="translate(-1412.000000, -968.000000)" fill="#000000" stroke="#000000">
            <g id="BorderedClose" transform="translate(1412.000000, 874.000000)">
                <g id="body" transform="translate(0.000000, 94.000000)">
                    <g id="Glyph" transform="translate(25.000000, 29.000000)">
                        <g id="Annulus">
                            <path d="M233,466 C104.317653,466 2.84217094e-14,361.682347 2.84217094e-14,233 C2.84217094e-14,104.317653 104.317653,4.22170979e-14 233,4.22170979e-14 C361.682347,4.22170979e-14 466,104.317653 466,233 C466,361.682347 361.682347,466 233,466 Z M233,457 C356.711784,457 457,356.711784 457,233 C457,109.288216 356.711784,9 233,9 C109.288216,9 9,109.288216 9,233 C9,356.711784 109.288216,457 233,457 Z" id="Combined-Shape"></path>
                        </g>
                        <rect id="Rectangle" transform="translate(232.743687, 233.000000) rotate(135.000000) translate(-232.743687, -233.000000) " x="68.2436867" y="223.5" width="329" height="19"></rect>
                        <rect id="Rectangle" transform="translate(232.743687, 233.000000) rotate(45.000000) translate(-232.743687, -233.000000) " x="68.2436867" y="223.5" width="329" height="19"></rect>
                    </g>
                </g>
            </g>
        </g>
    </g>
</svg>