<?xml version="1.0" encoding="UTF-8"?>
<svg width="516px" height="516px" viewBox="0 0 516 516" version="1.1" xmlns="http://www.w3.org/2000/svg" xmlns:xlink="http://www.w3.org/1999/xlink">
    <!-- Generator: Sketch 52.2 (67145) - http://www.bohemiancoding.com/sketch -->
    <title>FilledClose</title>
    <desc>Created with Sketch.</desc>
    <g id="Page-1" stroke="none" stroke-width="1" fill="none" fill-rule="evenodd">
        <g id="Icons" transform="translate(-760.000000, -966.000000)" fill="#000000">
            <g id="FilledClose" transform="translate(760.000000, 874.000000)">
                <g id="body" transform="translate(2.000000, 94.000000)">
                    <path d="M256,487 C127.317653,487 23,382.682347 23,254 C23,125.317653 127.317653,21 256,21 C384.682347,21 489,125.317653 489,254 C489,382.682347 384.682347,487 256,487 Z M276.95689,254 L383.022907,147.933983 L361.809704,126.720779 L255.743687,232.786797 L149.67767,126.720779 L128.464466,147.933983 L234.530483,254 L128.464466,360.066017 L149.67767,381.279221 L255.743687,275.213203 L361.809704,381.279221 L383.022907,360.066017 L276.95689,254 Z" id="Combined-Shape"></path>
                </g>
            </g>
        </g>
    </g>
</svg>