<?xml version="1.0" encoding="UTF-8"?>
<svg width="512px" height="512px" viewBox="0 0 512 512" version="1.1" xmlns="http://www.w3.org/2000/svg" xmlns:xlink="http://www.w3.org/1999/xlink">
    <!-- Generator: Sketch 52.2 (67145) - http://www.bohemiancoding.com/sketch -->
    <title>FilledClose</title>
    <desc>Created with Sketch.</desc>
    <g id="Page-1" stroke="none" stroke-width="1" fill="none" fill-rule="evenodd">
        <g id="Icons" transform="translate(-758.000000, -964.000000)" fill="#000000">
            <g id="FilledClose" transform="translate(758.000000, 964.000000)">
                <g id="body" transform="translate(3.984496, 3.984496)">
                    <path d="M253.821705,482.837209 C126.243928,482.837209 22.8217054,379.414987 22.8217054,251.837209 C22.8217054,124.259432 126.243928,20.8372093 253.821705,20.8372093 C381.399483,20.8372093 484.821705,124.259432 484.821705,251.837209 C484.821705,379.414987 381.399483,482.837209 253.821705,482.837209 Z M274.809938,252.031008 L380.053737,146.787208 L359.004977,125.738448 L253.761178,230.982248 L148.517378,125.738448 L127.468618,146.787208 L232.712418,252.031008 L127.468618,357.274808 L148.517378,378.323568 L253.761178,273.079768 L359.004977,378.323568 L380.053737,357.274808 L274.809938,252.031008 Z" id="Combined-Shape"></path>
                </g>
            </g>
        </g>
    </g>
</svg>