<?xml version="1.0" encoding="UTF-8"?>
<svg width="512px" height="512px" viewBox="0 0 512 512" version="1.1" xmlns="http://www.w3.org/2000/svg" xmlns:xlink="http://www.w3.org/1999/xlink">
    <!-- Generator: Sketch 52.2 (67145) - http://www.bohemiancoding.com/sketch -->
    <title>Heart</title>
    <desc>Created with Sketch.</desc>
    <g id="Page-1" stroke="none" stroke-width="1" fill="none" fill-rule="evenodd">
        <g id="Icons" transform="translate(-764.000000, -1733.000000)">
            <g id="Heart" transform="translate(753.000000, 1675.000000)">
                <g id="body">
                    <g id="assistant" transform="translate(9.000000, 58.000000)">
                        <rect id="Background" fill="#D8D8D8" x="0" y="0" width="512" height="512"></rect>
                        <g stroke-width="1" id="Grid" stroke="#FFFFFF" stroke-linecap="square" stroke-opacity="0.5">
                            <path d="M0,0 L512,512 M512,0 L0,512 M33,0 L33,512 M159,0 L159,512 M256,0 L256,512 M353,0 L353,512 M479,0 L479,512 M0,479 L512,479 M0,353 L512,353 M0,256 L512,256 M0,159 L512,159 M0,33 L512,33 M256,479 C379.159499,479 479,379.159499 479,256 C479,132.840501 379.159499,33 256,33 C132.840501,33 33,132.840501 33,256 C33,379.159499 132.840501,479 256,479 Z M256,393 C331.663011,393 393,331.663011 393,256 C393,180.336989 331.663011,119 256,119 C180.336989,119 119,180.336989 119,256 C119,331.663011 180.336989,393 256,393 Z M256,353 C309.571621,353 353,309.571621 353,256 C353,202.428379 309.571621,159 256,159 C202.428379,159 159,202.428379 159,256 C159,309.571621 202.428379,353 256,353 Z" stroke-width="2"></path>
                        </g>
                    </g>
                    <g id="Glyph" stroke="#000000" stroke-width="30">
                        <g id="heart">
                            <path d="M328.143796,453.611564 L78.1437961,453.611564 L78.1437961,203.611564 C78.1437961,134.57597 134.108202,78.6115637 203.143796,78.6115637 C272.17939,78.6115637 328.143796,134.57597 328.143796,203.611564 C397.17939,203.611564 453.143796,259.57597 453.143796,328.611564 C453.143796,397.647157 397.17939,453.611564 328.143796,453.611564 Z" id="Combined-Shape" transform="translate(265.643796, 266.111564) rotate(-45.000000) translate(-265.643796, -266.111564) "></path>
                        </g>
                    </g>
                </g>
            </g>
        </g>
    </g>
</svg>