<?xml version="1.0" encoding="UTF-8"?>
<svg width="512px" height="512px" viewBox="0 0 512 512" version="1.1" xmlns="http://www.w3.org/2000/svg" xmlns:xlink="http://www.w3.org/1999/xlink">
    <!-- Generator: Sketch 52.2 (67145) - http://www.bohemiancoding.com/sketch -->
    <title>Heart</title>
    <desc>Created with Sketch.</desc>
    <g id="Page-1" stroke="none" stroke-width="1" fill="none" fill-rule="evenodd">
        <g id="Icons" transform="translate(-771.000000, -1754.000000)" fill="#000000" fill-rule="nonzero">
            <g id="Heart" transform="translate(760.000000, 1696.000000)">
                <g id="body">
                    <g id="Glyph">
                        <g id="heart">
                            <path d="M93.1437961,438.611564 L328.143796,438.611564 C388.895119,438.611564 438.143796,389.362886 438.143796,328.611564 C438.143796,267.860241 388.895119,218.611564 328.143796,218.611564 L313.143796,218.611564 L313.143796,203.611564 C313.143796,142.860241 263.895119,93.6115637 203.143796,93.6115637 C142.392474,93.6115637 93.1437961,142.860241 93.1437961,203.611564 L93.1437961,438.611564 Z M468.143796,328.611564 C468.143796,405.931429 405.463661,468.611564 328.143796,468.611564 L63.1437961,468.611564 L63.1437961,203.611564 C63.1437961,126.291699 125.823931,63.6115637 203.143796,63.6115637 C275.642651,63.6115637 335.27048,118.718979 342.424395,189.330924 C413.036361,196.484859 468.143796,256.112696 468.143796,328.611564 Z" id="Combined-Shape" transform="translate(265.643796, 266.111564) rotate(-45.000000) translate(-265.643796, -266.111564) "></path>
                        </g>
                    </g>
                </g>
            </g>
        </g>
    </g>
</svg>